<svg width="357" height="768" viewBox="0 0 357 768" fill="none" xmlns="http://www.w3.org/2000/svg">
<ellipse cx="160.474" cy="705.236" rx="61.1121" ry="62.4663" fill="#181818"/>
<path d="M196.224 101.847C196.224 156.774 152.8 201.194 99.3621 201.194C45.9245 201.194 2.5 156.774 2.5 101.847C2.5 46.9207 45.9245 2.5 99.3621 2.5C152.8 2.5 196.224 46.9207 196.224 101.847Z" stroke="black" stroke-width="5"/>
<path d="M196.526 406.484C183.535 406.484 170.672 403.837 158.67 398.696C146.668 393.555 135.763 386.02 126.577 376.521C117.391 367.021 110.105 355.744 105.133 343.332C100.162 330.921 97.6034 317.618 97.6034 304.184C97.6034 290.749 100.162 277.447 105.133 265.035C110.105 252.624 117.391 241.346 126.577 231.847C135.763 222.347 146.668 214.812 158.67 209.671C170.672 204.53 183.535 201.884 196.526 201.884L196.526 304.184V406.484Z" fill="#181818"/>
<path d="M221.968 0.579008C239.7 0.599199 257.255 4.79335 273.629 12.922C290.003 21.0507 304.876 32.9547 317.399 47.9543C329.922 62.9539 339.849 80.7555 346.614 100.342C353.379 119.93 356.849 140.918 356.827 162.111C356.804 183.303 353.289 204.284 346.482 223.856C339.675 243.428 329.709 261.206 317.154 276.178C304.599 291.149 289.7 303.019 273.309 311.11C256.917 319.201 239.354 323.356 221.621 323.335L221.794 161.957L221.968 0.579008Z" fill="#181818"/>
<path d="M115.573 422.782C128.557 422.781 141.413 425.414 153.408 430.529C165.403 435.644 176.302 443.141 185.483 452.593C194.664 462.045 201.947 473.266 206.916 485.615C211.884 497.965 214.442 511.201 214.442 524.568C214.443 537.936 211.886 551.172 206.918 563.522C201.949 575.872 194.667 587.093 185.487 596.545C176.307 605.998 165.408 613.496 153.413 618.611C141.418 623.727 128.562 626.36 115.579 626.361L115.576 524.571L115.573 422.782Z" fill="#181818"/>
</svg>
