<svg width="304" height="354" viewBox="0 0 304 354" fill="none" xmlns="http://www.w3.org/2000/svg">
<path d="M15.5 267.5H6V352H61.5V342.5H15.5V267.5Z" fill="#FFFFFE"/>
<path d="M9.5 84.5H0V45.5H9.5H39.5C61.5 46.5 66.5 9.99997 39.5 8.99997H9.5H0V0H9.5L39.5 0C74 0 78.5 51.5 39.5 54.5H9.5V84.5Z" fill="#FFFFFE"/>
<path d="M145.588 0C153.994 1.00237e-07 162.211 2.49258 169.2 7.16254C176.189 11.8325 181.637 18.4701 184.853 26.236C188.07 34.0018 188.912 42.5471 187.272 50.7913C185.632 59.0355 181.584 66.6083 175.64 72.552C169.697 78.4958 162.124 82.5435 153.88 84.1834C145.636 85.8232 137.09 84.9816 129.324 81.7649C121.558 78.5482 114.921 73.1008 110.251 66.1117C105.581 59.1226 103.088 50.9057 103.088 42.5L112.259 42.5C112.259 49.0918 114.214 55.5357 117.876 61.0166C121.539 66.4975 126.744 70.7693 132.834 73.2919C138.924 75.8145 145.625 76.4745 152.091 75.1885C158.556 73.9025 164.494 70.7283 169.156 66.0671C173.817 61.406 176.991 55.4673 178.277 49.0022C179.563 42.537 178.903 35.8356 176.38 29.7456C173.858 23.6555 169.586 18.4502 164.105 14.788C158.624 11.1258 152.18 9.17105 145.588 9.17105L145.588 0Z" fill="#FFFFFE"/>
<path d="M180.919 152.879C186.384 161.053 188.846 170.869 187.885 180.654C186.924 190.44 182.599 199.589 175.649 206.544C168.698 213.498 159.551 217.828 149.766 218.794C139.981 219.761 130.163 217.304 121.986 211.844C113.809 206.383 107.779 198.257 104.922 188.848C102.065 179.44 102.559 169.332 106.319 160.247C110.079 151.161 116.873 143.661 125.544 139.024C134.214 134.386 144.224 132.899 153.868 134.814L152.082 143.81C144.519 142.307 136.669 143.474 129.869 147.111C123.07 150.747 117.742 156.629 114.793 163.754C111.844 170.879 111.457 178.805 113.697 186.184C115.938 193.562 120.667 199.935 127.079 204.217C133.492 208.499 141.191 210.425 148.864 209.668C156.538 208.91 163.711 205.515 169.162 200.061C174.613 194.607 178.004 187.432 178.758 179.758C179.511 172.084 177.581 164.386 173.295 157.976L180.919 152.879Z" fill="#FFFFFE"/>
<path d="M297.159 287.848C293.372 281.451 287.973 276.16 281.502 272.502C275.03 268.844 267.712 266.947 260.279 267.001C252.845 267.055 245.556 269.058 239.138 272.81C232.721 276.562 227.4 281.932 223.706 288.383C220.012 294.834 218.075 302.141 218.088 309.575C218.102 317.009 220.064 324.309 223.781 330.747C227.497 337.185 232.837 342.536 239.268 346.265C245.698 349.994 252.995 351.972 260.429 352L260.463 342.829C254.633 342.807 248.912 341.256 243.869 338.332C238.825 335.407 234.638 331.211 231.723 326.162C228.809 321.113 227.27 315.388 227.259 309.559C227.249 303.729 228.768 297.999 231.665 292.94C234.561 287.881 238.734 283.67 243.767 280.727C248.8 277.785 254.516 276.214 260.346 276.172C266.175 276.129 271.914 277.617 276.989 280.485C282.064 283.354 286.298 287.504 289.268 292.52L297.159 287.848Z" fill="#FFFFFE"/>
<path d="M236.088 43.0355V52.0355H266.088L286.588 84.5355H297.588L275.588 50.5355C305.088 45.0357 303.088 -1.46427 266.088 0.0354924H236.088V9.03549H266.588C292.088 8.03572 294.588 43.5357 266.588 43.0355H236.088Z" fill="#FFFFFE"/>
<path d="M22 142.844V218.5H31.5V143H61V133.5H6V142.844H22Z" fill="#FFFFFE"/>
<path d="M272.588 181.536H245.588V195.036H236.088V133.536H245.588H297.088V142.536L245.588 142.723V172.036H272.588V181.536Z" fill="#FFFFFE"/>
<path d="M141.088 268H150.701V353.5H141.088V268Z" fill="#FFFFFE"/>
</svg>
