<svg width="431" height="487" viewBox="0 0 431 487" fill="none" xmlns="http://www.w3.org/2000/svg">
<path d="M73.5 317.5H64V402H119.5V392.5H73.5V317.5Z" fill="#181818"/>
<path d="M67.5 134.5H58V95.5H67.5H97.5C119.5 96.5 124.5 60 97.5 59H67.5H58V50H67.5L97.5 50C132 50 136.5 101.5 97.5 104.5H67.5V134.5Z" fill="#181818"/>
<path d="M203.588 50C211.994 50 220.211 52.4926 227.2 57.1625C234.189 61.8325 239.637 68.4701 242.853 76.236C246.07 84.0018 246.912 92.5471 245.272 100.791C243.632 109.036 239.584 116.608 233.64 122.552C227.697 128.496 220.124 132.544 211.88 134.183C203.636 135.823 195.09 134.982 187.324 131.765C179.558 128.548 172.921 123.101 168.251 116.112C163.581 109.123 161.088 100.906 161.088 92.5H170.259C170.259 99.0918 172.214 105.536 175.876 111.017C179.539 116.497 184.744 120.769 190.834 123.292C196.924 125.815 203.625 126.475 210.091 125.189C216.556 123.903 222.494 120.728 227.156 116.067C231.817 111.406 234.991 105.467 236.277 99.0022C237.563 92.537 236.903 85.8356 234.38 79.7456C231.858 73.6555 227.586 68.4502 222.105 64.788C216.624 61.1258 210.18 59.1711 203.588 59.1711V50Z" fill="#181818"/>
<path d="M238.919 202.879C244.384 211.053 246.846 220.869 245.885 230.654C244.924 240.44 240.599 249.589 233.649 256.544C226.698 263.498 217.551 267.828 207.766 268.794C197.981 269.761 188.163 267.304 179.986 261.844C171.809 256.383 165.779 248.257 162.922 238.848C160.065 229.44 160.559 219.332 164.319 210.247C168.079 201.161 174.873 193.661 183.544 189.024C192.214 184.386 202.224 182.899 211.868 184.814L210.082 193.81C202.519 192.307 194.669 193.474 187.869 197.111C181.07 200.747 175.742 206.629 172.793 213.754C169.844 220.879 169.457 228.805 171.697 236.184C173.938 243.562 178.667 249.935 185.079 254.217C191.492 258.499 199.191 260.425 206.864 259.668C214.538 258.91 221.711 255.515 227.162 250.061C232.613 244.607 236.004 237.432 236.758 229.758C237.511 222.084 235.581 214.386 231.295 207.976L238.919 202.879Z" fill="#181818"/>
<path d="M355.159 337.848C351.372 331.451 345.973 326.16 339.502 322.502C333.03 318.844 325.712 316.947 318.279 317.001C310.845 317.055 303.556 319.058 297.138 322.81C290.721 326.562 285.4 331.932 281.706 338.383C278.012 344.834 276.075 352.141 276.088 359.575C276.102 367.009 278.064 374.309 281.781 380.747C285.497 387.185 290.837 392.536 297.268 396.265C303.698 399.994 310.995 401.972 318.429 402L318.463 392.829C312.633 392.807 306.912 391.256 301.869 388.332C296.825 385.407 292.638 381.211 289.723 376.162C286.809 371.113 285.27 365.388 285.259 359.559C285.249 353.729 286.768 347.999 289.665 342.94C292.561 337.881 296.734 333.67 301.767 330.727C306.8 327.785 312.516 326.214 318.346 326.172C324.175 326.129 329.914 327.617 334.989 330.485C340.064 333.354 344.298 337.504 347.268 342.52L355.159 337.848Z" fill="#181818"/>
<path d="M294.088 93.0355V102.036H324.088L344.588 134.535H355.588L333.588 100.536C363.088 95.0357 361.088 48.5357 324.088 50.0355H294.088V59.0355H324.588C350.088 58.0357 352.588 93.5357 324.588 93.0355H294.088Z" fill="#181818"/>
<path d="M80 192.844V268.5H89.5V193H119V183.5H64V192.844H80Z" fill="#181818"/>
<path d="M330.588 231.536H303.588V245.036H294.088V183.536H303.588H355.088V192.536L303.588 192.723V222.036H330.588V231.536Z" fill="#181818"/>
<path d="M199.088 318H208.588V402.5H199.088V318Z" fill="#181818"/>
<line x1="161" y1="485.5" x2="431" y2="485.5" stroke="#181818" stroke-width="3"/>
<line x1="3" y1="485.5" x2="44" y2="485.5" stroke="#181818" stroke-width="3"/>
<line x1="1.5" y1="487" x2="1.5" stroke="#181818" stroke-width="3"/>
</svg>
